<?xml version="1.0" encoding="UTF-8" standalone="no"?>
<svg
   xmlns:dc="http://purl.org/dc/elements/1.1/"
   xmlns:cc="http://creativecommons.org/ns#"
   xmlns:rdf="http://www.w3.org/1999/02/22-rdf-syntax-ns#"
   xmlns:svg="http://www.w3.org/2000/svg"
   xmlns="http://www.w3.org/2000/svg"
   viewBox="0 0 2404 2445.9468"
   height="2445.9468"
   width="2404"
   xml:space="preserve"
   id="svg2"
   version="1.1"><metadata
     id="metadata8"><rdf:RDF><cc:Work
         rdf:about=""><dc:format>image/svg+xml</dc:format><dc:type
           rdf:resource="http://purl.org/dc/dcmitype/StillImage" /></cc:Work></rdf:RDF></metadata><defs
     id="defs6"><clipPath
       id="clipPath20"
       clipPathUnits="userSpaceOnUse"><path
         id="path18"
         d="M 0,0 H 14414 V 14665.7 H 0 Z" /></clipPath></defs><g
     transform="matrix(1.3333333,0,0,-1.3333333,0,2445.9467)"
     id="g10"><g
       transform="scale(0.125085)"
       id="g12"><g
         id="g14"><g
           clip-path="url(#clipPath20)"
           id="g16"><path
             id="path22"
             style="fill:#191919;fill-opacity:1;fill-rule:nonzero;stroke:none"
             d="m 3003.88,4508.77 c 0,0 59.53,-29.74 99.23,39.73 39.69,69.47 49.61,178.6 218.3,267.9 119.08,-89.3 109.15,-109.13 119.08,-178.6 9.92,-69.48 9.92,-129.03 0,-158.77 -9.93,-29.74 -49.63,-109.13 -39.7,-148.86 9.92,-39.65 44.66,-133.91 24.81,-223.29 -19.85,-89.3 -49.61,-99.21 -59.54,-148.78 -9.92,-49.64 -19.85,-307.63 -9.92,-367.19 9.92,-59.48 69.46,-138.86 109.15,-238.16 39.69,-99.21 69.46,-119.04 79.38,-178.59 9.92,-59.48 9.92,-138.87 39.69,-148.78 29.77,-10 69.46,-19.91 109.15,-59.56 39.69,-39.73 267.92,-257.98 337.37,-277.89 69.47,-19.83 218.3,-128.95 416.76,-506.06 198.46,-377.02 337.38,-793.78 347.29,-1041.85 9.93,-248.067 -19.84,-248.067 -39.68,-347.282 -19.85,-99.211 -49.62,-257.98 39.68,-317.543 89.31,-59.558 238.15,-148.855 446.53,-138.945 208.38,9.914 922.82,49.648 1468.57,-39.652 545.74,-89.297 714.44,-99.211 724.36,-168.684 9.92,-69.4726 -119.07,-49.6484 -119.07,-49.6484 0,0 -704.52,99.2144 -1081.59,79.3864 C 5856.67,137.828 5390.3,118 5142.23,108.086 c -248.06,-9.9922 -357.21,0 -436.6,29.742 -79.38,29.738 -69.45,69.473 -208.38,29.738 C 4358.33,127.914 4348.41,58.4414 4239.26,48.5273 4130.11,38.6133 3912.84,11.6719 3624.05,28.6992 3455.36,38.6133 3385.91,8.79297 3385.91,8.79297 c 0,0 -89.31,-19.82427 -129,0 -59.54,0 -198.46,0 -188.53,59.56253 -29.77,19.8242 -19.85,39.7305 -19.85,69.4725 0,29.738 29.77,69.473 29.77,69.473 l 29.77,19.824 -188.53,19.828 h -158.77 l -79.38,19.906 c 0,0 -89.31,0 -109.14,29.739 -19.86,29.742 -59.55,109.125 -29.77,128.953 29.77,19.906 59.53,69.472 109.15,49.644 19.84,29.743 29.76,59.563 119.07,29.743 89.3,-29.743 148.84,-49.567 367.14,-69.473 218.3,-19.828 307.61,-19.828 327.45,0 19.84,19.906 -49.62,119.117 -49.62,119.117 0,0 -79.38,89.301 -89.3,128.953 -9.92,39.731 -39.69,138.945 -49.61,148.86 -9.93,9.91 -9.93,9.91 -9.93,9.91 l -39.69,59.562 c 0,0 0,109.123 9.93,148.853 9.92,39.66 -9.93,158.78 -9.93,158.78 v 69.47 l 19.85,99.21 -19.85,99.21 c 0,0 -29.77,69.48 -49.61,89.3 -19.85,19.83 -19.85,19.83 -59.53,49.65 -39.7,29.74 -59.55,69.47 -59.55,69.47 l -29.76,39.65 -29.77,9.92 c 0,0 -228.22,-595.36 -248.07,-625.09 -19.85,-29.83 -39.69,-89.31 -59.53,-119.126 -19.85,-29.738 0,-59.559 -9.93,-79.387 -9.92,-19.824 -29.76,-39.652 -29.76,-39.652 0,0 -19.86,9.914 -29.78,-29.82 -9.92,-39.653 -49.6,-89.297 -49.6,-89.297 0,0 9.91,-49.567 0,-69.473 -9.93,-19.828 -39.7,-89.301 -39.7,-89.301 0,0 -9.92,-69.39 -19.85,-99.211 -9.92,-29.738 -9.92,-89.3 -29.76,-99.21 -19.85,-9.915 -29.77,-49.649 -29.77,-49.649 0,0 -9.92,-19.824 -29.78,-49.566 -19.84,-29.739 -69.45,-69.473 -69.45,-79.387 0,-9.91 -49.62,-29.738 -99.23,-29.738 -49.61,0 -79.38,-9.993 -99.23,9.914 -29.76,0 -138.91,0 -138.91,39.652 0,39.734 0,168.684 49.61,178.598 49.62,9.914 79.38,-9.914 119.07,0 39.7,9.914 39.7,29.82 69.46,69.472 29.77,39.735 79.39,238.157 119.07,377.102 39.7,138.869 148.85,664.829 148.85,714.399 0,49.64 -9.93,357.19 -49.62,456.48 -39.69,99.22 -119.07,327.46 -128.99,416.76 -9.92,89.3 19.84,367.11 49.61,416.76 0,0 -59.53,29.74 -79.38,59.48 -19.85,29.82 -29.77,69.47 -59.54,109.2 -29.76,39.66 -109.15,109.13 -138.91,148.78 -29.77,39.73 -178.62,258.06 -208.38,387.02 -29.77,129.03 -89.31,238.15 -89.31,238.15 l -19.84,19.83 c 0,0 -9.93,9.91 -19.85,49.64 -9.92,39.66 -39.69,69.48 -59.54,109.13 -19.84,39.73 -69.45,99.21 -69.45,99.21 v 29.83 c 0,0 -69.47,128.95 -89.31,138.86 -19.84,9.91 -29.77,9.91 -39.69,-9.91 -9.92,-19.83 -29.77,-39.66 -29.77,-39.66 v 89.3 c 0,0 19.85,9.92 -19.85,39.66 -39.68,29.82 -59.53,49.64 -79.37,39.73 -19.85,-9.91 -49.62,29.74 -49.62,29.74 l -29.77,19.83 h -49.62 c 0,0 -69.45,19.9 -59.53,69.47 -9.92,-9.92 -29.76,-29.74 -29.76,-29.74 l 19.84,89.3 109.15,69.47 c 0,0 19.84,29.74 49.61,39.65 29.78,9.92 19.85,-9.91 79.39,-29.74 59.53,-19.82 128.99,-59.56 158.76,-99.21 29.77,-39.73 198.45,-198.5 307.61,-337.37 109.14,-138.94 396.9,-516.05 436.6,-585.44 39.68,-69.47 49.61,-89.38 79.38,-109.21 29.77,-19.82 19.84,-29.73 69.46,-9.91 49.61,19.83 59.54,39.73 69.45,69.47 9.93,29.74 9.93,9.92 0,89.3 -9.91,79.39 -9.91,109.13 -19.84,138.95 -9.92,29.74 -19.85,59.48 -19.85,59.48 0,0 -128.99,39.73 -119.07,138.94 9.92,99.21 -69.45,79.39 -69.45,119.04 0,39.73 -9.93,119.12 59.53,148.86 0,29.82 -9.93,59.56 39.68,79.39 49.62,19.9 129,39.73 129,79.38 0,39.73 -69.45,238.16 -69.45,238.16 0,0 -19.85,79.38 19.84,49.65 39.7,-29.82 198.46,-109.21 228.22,-198.51 59.55,0 148.84,19.83 272.88,4.96" /><path
             id="path24"
             style="fill:#191919;fill-opacity:1;fill-rule:nonzero;stroke:none"
             d="m 13128.4,3486.34 c 0,0 -131.3,20.15 -161.5,0 -30.3,-20.22 -201.9,-10.07 -262.4,10.08 -60.6,20.22 -151.5,70.67 -191.8,60.6 -40.4,-10.16 -60.5,60.52 -60.5,60.52 0,0 -191.8,434.02 -222.1,464.32 -30.3,30.3 -121.2,161.49 -201.9,0 -80.7,-161.49 -70.7,-464.32 -70.7,-474.4 0,-10.07 -20.1,-232.16 -20.1,-232.16 v -131.19 c 0,0 -30.3,-161.49 -80.8,-222.09 -50.5,-60.52 -116,-216.97 -106,-317.94 10.1,-100.97 30.3,-232.17 30.3,-232.17 0,0 -191.8,100.98 -272.5,181.72 -80.7,80.75 -191.8,121.12 -212,111.05 -20.2,-10.16 -302.8,110.96 -383.5,151.33 -80.8,40.38 -292.8,181.72 -444.2,212.02 -151.4,30.22 -767.07,60.52 -857.89,60.52 -90.9,0 -262.46,-20.15 -262.46,-20.15 l -30.3,-30.3 20.22,-30.3 c 0,0 -50.52,10.08 -90.89,0 -40.38,-10.07 -90.82,-20.14 -90.82,-20.14 l -40.37,-10.08 -40.38,-20.22 v -10.08 l -30.29,-10.15 v -20.15 l -171.57,-10.07 70.67,-30.3 c 0,0 -60.6,-20.22 -90.89,-30.3 -30.23,-10.07 50.52,-30.3 50.52,-30.3 l -20.23,-40.37 -40.37,-20.15 c 0,0 -40.37,0 -90.82,-10.07 -50.44,-10.15 -212.01,-131.27 -212.01,-131.27 l -60.52,-30.3 -20.23,-50.44 -90.82,-10.08 v -40.37 l -30.29,-20.23 -20.15,-40.37 -60.6,-50.45 -60.52,-20.14 v -30.3 l 70.67,-20.23 c 0,0 -50.52,-50.44 -100.97,-80.74 -50.44,-30.3 -100.97,-40.37 -100.97,-40.37 l -40.37,-30.3 h 70.67 l -70.67,-20.15 h 50.52 l -20.22,-60.6 -70.64,-30.22 h 60.56 l -30.29,-30.3 50.44,-10.07 -181.65,-131.27 40.37,-50.45 -40.37,-50.44 h 70.65 c 0,0 -111.02,-181.72 -100.94,-232.16 10.1,-50.45 -30.28,-151.42 -30.28,-151.42 l -40.36,-60.6 70.64,60.6 40.38,70.67 v -100.97 l -50.46,-80.74 -30.29,-30.3 -30.27,-40.37 -30.29,-151.34 70.65,80.74 -10.09,-90.9 c 0,0 -50.47,-70.59 -60.56,-110.96 -4.16,-16.71 -8.33,-35.096 -11.79,-50.928 -4.91,-22.543 -8.4,-39.972 -8.4,-39.972 v -40.371 l 70.66,80.746 c 0,0 0,-60.52 -30.28,-121.117 -30.28,-60.52 -50.47,-131.192 -40.38,-201.864 10.1,-70.672 30.28,-161.488 30.28,-161.488 l 10.1,70.668 30.28,-100.969 10.09,30.301 70.66,-90.82 10.09,-111.043 c 0,0 111.04,-60.602 151.41,-100.973 40.38,-40.371 50.45,-40.371 141.27,-50.445 90.9,-10.075 454.25,-70.6722 716.71,-60.598 262.38,10.1524 948.79,-20.1484 948.79,-20.1484 0,0 1816.86,-80.7422 2159.96,-50.44532 343.2,30.21872 757.1,20.14842 757.1,20.14842 0,0 181.6,10.0703 201.9,60.5977 20.1,50.4456 -60.6,100.8906 -151.5,100.8906 -90.8,0 -90.8,0 -90.8,0 l 181.7,20.227 131.2,-10.075 c 0,0 121.1,10.075 191.7,80.746 70.7,70.59 70.7,100.891 70.7,131.192 0,30.297 -30.3,141.262 -30.3,141.262 l -50.4,90.898 -20.2,40.375 -10.1,100.891 c 0,0 141.3,343.204 151.4,454.254 10.1,111.04 30.3,232.16 30.3,232.16 l 101,181.63 -30.3,50.53 30.3,90.82 v 80.74 l 30.2,10.07 v 60.6 c 0,0 10.1,-40.37 0,10.07 -10.1,50.45 -10.1,50.45 -10.1,50.45 l 10.1,10.16 v 10.07 l 20.2,30.3 v 20.15 l 30.3,50.44 v 30.3 c 0,0 -10.2,-10.08 0,30.3 10.1,40.37 -80.7,-40.38 0,40.37 80.7,80.75 60.5,50.45 80.7,80.75 20.2,30.29 111,312.9 131.2,373.42 20.3,60.6 0,191.79 0,191.79 l -20.2,141.34 30.3,121.12 c 0,0 141.4,211.94 121.1,464.33 -20.1,252.3 -40.3,423.87 -141.2,423.87 -101,0 -201.9,-50.45 -272.6,-151.34 -70.6,-100.97 -312.9,-373.51 -358.3,-388.62" /><path
             id="path26"
             style="fill:#191919;fill-opacity:1;fill-rule:nonzero;stroke:none"
             d="m 2409.68,13137.1 c 0,0 -107.75,41 -138.55,66.7 -30.79,25.7 -25.65,46.2 -25.65,46.2 l 25.65,56.4 5.14,51.3 30.79,77 35.92,66.7 c 0,0 87.23,133.4 112.88,179.6 25.66,46.2 51.32,143.7 51.32,143.7 v 25.7 c 0,0 -92.36,5.1 -153.95,-36 -61.57,-41 -148.8,-61.5 -148.8,-61.5 0,0 -61.58,-15.4 -102.63,-5.2 -41.05,10.3 -153.94,61.6 -153.94,61.6 0,0 -179.6,87.2 -205.26,92.4 -25.66,5.1 -61.58,15.4 -61.58,15.4 0,0 -30.79,143.6 -51.31,179.6 -20.53,35.9 -71.84,195 -112.9,184.7 -41.05,-10.3 -76.97,-66.7 -87.23,-143.7 -10.26,-77 -35.92,-195 -46.19,-225.8 -10.25,-30.8 -46.18,-92.3 -51.31,-118 -5.13,-25.6 -30.79,-61.6 -30.79,-61.6 l -92.36,-92.3 v -92.4 l -15.4,-20.5 20.53,-25.7 -20.53,-15.4 30.79,-15.4 -15.39,-10.2 10.26,-10.3 -25.66,-25.7 30.79,-82.1 c 0,0 0,-56.4 15.39,-92.3 15.4,-35.9 35.92,-195 51.32,-266.9 15.4,-71.8 5.13,-313 -20.53,-420.7 -25.65,-107.8 5.13,-215.6 5.13,-215.6 0,0 15.4,-184.7 97.51,-307.8 82.1,-123.2 123.15,-277.1 66.7,-338.7 -56.45,-61.6 -302.75,-266.8 -364.32,-338.7 -61.59,-71.8 -251.45,-261.7 -251.45,-261.7 0,0 -123.152,-133.4 -153.941,-179.6 -30.789,-46.2 -41.055,-46.2 -25.656,-61.6 15.394,-15.4 -35.922,-66.7 -25.66,-97.5 10.261,-30.8 20.527,-46.2 56.445,-51.3 35.922,-5.1 61.578,-15.4 61.578,-15.4 0,0 82.102,10.3 118.019,35.9 35.922,25.7 92.372,92.4 92.372,92.4 l 35.918,56.5 c 0,0 20.525,25.6 35.925,35.9 15.39,10.2 56.45,97.5 56.45,97.5 0,0 0,-20.6 30.78,-10.3 30.79,10.3 56.44,92.4 123.16,118 66.7,25.7 313.01,138.6 313.01,138.6 0,0 302.76,128.3 348.94,159.1 46.18,30.7 128.29,123.1 128.29,123.1 0,0 30.78,15.4 56.44,-20.5 25.66,-35.9 66.71,-133.4 66.71,-133.4 0,0 30.79,-138.6 46.18,-220.7 15.4,-82.1 87.24,-313 35.93,-431 -51.32,-118 -46.19,-195 -102.64,-189.9 -56.44,5.1 -123.16,20.5 -184.73,-56.4 -61.57,-77 -66.71,-128.3 -30.79,-133.4 35.92,-5.2 30.79,-5.2 56.45,-15.4 25.66,-10.3 82.1,0 82.1,0 0,0 30.79,0 107.76,-5.2 76.98,-5.1 123.16,20.6 123.16,20.6 l 76.96,82 c 0,0 35.93,66.8 61.59,97.5 25.65,30.8 46.18,56.5 66.7,133.5 20.53,76.9 25.66,210.4 25.66,210.4 l 153.94,713.2 c 0,0 20.53,107.8 97.51,123.2 76.96,15.4 451.56,56.4 543.93,-10.3 92.36,-66.7 128.28,-35.9 194.98,-148.8 66.72,-112.9 56.45,-148.8 92.37,-241.2 35.92,-92.3 10.27,-138.5 56.45,-174.4 46.18,-36 61.58,-56.5 76.96,-97.5 15.4,-41.1 76.98,-174.5 -76.96,-246.3 -153.94,-71.9 -277.1,-169.4 -338.68,-154 -61.57,15.4 -210.38,-10.3 -205.25,-77 5.12,-66.7 25.65,-133.4 92.37,-118 56.44,-10.3 174.46,-41 266.83,-10.3 92.36,30.8 261.69,102.7 446.43,205.3 184.73,102.6 271.97,169.4 277.1,205.3 5.14,35.9 -25.66,46.2 -20.53,82.1 5.14,35.9 30.79,195 51.32,287.3 20.52,92.4 0,205.3 0,246.3 0,41.1 271.97,-159 415.64,-215.5 143.68,-56.4 692.75,-195 759.46,-236 66.71,-41.1 71.83,-51.3 92.36,-138.6 20.53,-87.2 56.45,-328.4 20.53,-318.1 -35.92,10.2 -169.33,-10.3 -174.47,-87.3 -5.13,-76.9 10.26,-164.2 61.58,-143.6 51.31,20.5 76.97,-5.2 76.97,-5.2 h 153.94 c 0,0 56.45,-15.4 92.37,77 35.92,92.4 71.84,200.1 61.57,297.6 -10.26,97.5 0,467 0,467 0,0 25.66,153.9 -51.31,179.6 -76.97,25.6 -333.54,241.2 -451.57,395.1 -118.02,154 -123.15,184.7 -118.02,328.4 5.13,143.7 -30.79,287.4 -66.71,359.2 -35.92,71.9 -61.57,195 -5.13,261.7 56.45,66.7 333.54,220.7 425.91,395.1 92.37,174.5 56.45,128.3 56.45,128.3 l 25.65,112.9 25.66,71.9 5.13,51.3 -25.66,-35.9 25.66,97.5 15.4,66.7 5.13,51.3 c 0,0 46.18,246.3 30.79,318.1 -15.4,71.9 -46.19,128.3 -46.19,128.3 l 15.4,-77 c 0,0 -20.53,56.5 -41.05,138.6 -20.53,82.1 -97.5,189.8 -97.5,189.8 l -105.35,126.5 -22.93,27.5 c 0,0 -71.85,77 -118.03,102.6 -46.18,25.7 -112.89,56.5 -112.89,56.5 l 10.26,-20.6 c 0,0 -41.05,36 -128.28,46.2 -58.48,6.9 -116.96,4.6 -149.17,2.3 -15.82,-1.2 -25.3,-2.3 -25.3,-2.3 0,0 -112.9,-5.1 -159.08,-20.5 -46.18,-15.4 -82.1,-41.1 -82.1,-41.1 0,0 -15.39,-15.4 -56.44,-41 -41.06,-25.7 -92.38,-51.3 -92.38,-51.3 l -69.27,-69.3 -12.82,-12.8 v -51.3 c 0,0 -25.66,5.1 5.12,-25.7 30.8,-30.8 41.06,-77 87.24,-56.4 46.18,20.5 35.92,15.4 112.89,41 76.97,25.7 241.18,107.8 420.78,0 179.6,-107.8 333.54,-230.9 323.28,-533.7 -10.26,-302.7 -5.13,-631.1 -451.57,-913.4 -133.42,-46.1 -318.15,5.2 -400.25,51.4 -82.1,46.1 -774.85,323.2 -1118.65,369.4 -343.81,46.2 -477.23,-5.1 -569.59,-30.8 -92.37,-25.6 -236.05,-133.4 -379.73,-138.5" /><path
             id="path28"
             style="fill:#191919;fill-opacity:1;fill-rule:nonzero;stroke:none"
             d="m 13641.3,13697.5 c 0,0 295.5,-160.6 340.5,-282.6 45,-122.1 45,-141.4 45,-224.9 0,-83.5 32,-141.3 44.9,-154.2 12.9,-12.8 77.1,-96.3 64.3,-147.7 -12.9,-51.4 -32.2,-70.7 -32.2,-70.7 0,0 -89.9,-128.5 -167,-160.6 -77.1,-32.1 -154.2,-19.2 -231.3,0 -77,19.3 -231.2,0 -327.6,-19.2 -96.3,-19.3 -263.4,-83.6 -269.8,-122.1 -6.4,-38.6 0,-353.3 0,-353.3 0,0 32.1,-327.6 160.6,-469 128.5,-141.3 314.8,-366.1 398.3,-417.5 83.5,-51.4 173.4,-167.1 173.4,-167.1 0,0 122.1,-134.9 173.5,-154.1 51.4,-19.3 115.6,-109.2 115.6,-109.2 0,0 96.4,-38.6 128.5,-38.6 32.1,0 147.8,-32.1 154.2,-96.3 6.4,-64.3 0,-135 -57.8,-154.2 -57.8,-19.3 -173.5,-38.6 -192.8,-25.7 -19.2,12.8 -32.1,25.7 -32.1,25.7 l -32.1,19.2 -51.4,-6.4 c 0,0 -45,-19.2 -89.9,12.9 -45,32.1 -83.6,51.4 -83.6,51.4 l -44.9,19.2 c 0,0 -32.1,51.4 -96.4,90 -64.2,38.5 -134.9,77.1 -134.9,77.1 0,0 -449.7,327.6 -629.5,423.9 -179.9,96.4 -334,276.3 -520.4,295.5 -186.3,19.3 -237.7,19.3 -289.1,51.4 -51.3,32.2 -115.6,102.8 -115.6,102.8 v 25.7 c 0,0 -179.9,-102.8 -301.9,-256.9 -122,-154.2 -224.9,-359.8 -257,-443.3 -32.1,-83.5 -102.8,-224.8 -102.8,-224.8 0,0 -12.8,-51.4 -12.8,-77.1 0,-25.7 -6.5,-70.7 25.7,-115.7 32.1,-44.9 83.5,-32.1 83.5,-32.1 0,0 83.5,-19.2 109.2,-70.6 25.7,-51.4 12.9,-141.4 -12.8,-154.2 -25.7,-12.9 -70.7,0 -70.7,0 l -45,-19.3 -51.4,12.9 c 0,0 -96.3,-32.2 -192.7,-12.9 -96.3,19.3 -134.9,64.2 -154.1,122.1 -19.3,57.8 -38.6,186.3 -38.6,186.3 v 128.4 c 0,0 -25.7,70.7 0,128.5 25.7,57.8 90,205.6 102.8,340.5 12.8,134.9 45,366.2 45,366.2 l 6.4,147.7 c 0,0 -263.4,-77.1 -456.1,-96.3 -192.8,-19.3 -501.1,6.4 -501.1,6.4 l -468.98,-38.6 -44.93,-38.5 -430.43,-507.5 c 0,0 -51.41,-109.2 25.74,-167 77.07,-57.8 231.21,-212 269.82,-224.9 38.53,-12.8 51.32,-32.1 115.6,-12.8 64.2,19.3 141.34,-25.7 141.34,-25.7 l 89.94,-77.1 c 0,0 19.27,-32.1 -6.47,-83.5 -25.67,-51.4 -102.73,-70.7 -102.73,-70.7 h -334.1 l -77.06,12.9 -25.75,32.1 -102.73,51.4 c 0,0 -276.21,231.3 -385.41,359.7 -109.21,128.5 -199.15,237.7 -186.36,295.5 12.87,57.8 83.55,186.3 83.55,186.3 0,0 25.66,77.1 44.93,128.5 19.26,51.4 32.14,96.4 32.14,96.4 0,0 -815.85,-173.5 -982.87,-122.1 -167.02,51.4 -263.38,-173.4 -263.38,-173.4 0,0 -218.41,-514 -231.26,-558.9 -12.86,-45 -64.24,-160.6 -109.22,-167 -44.96,-6.5 -122.05,0 -147.74,25.6 -25.71,25.7 -32.12,57.9 -32.12,57.9 l 12.84,51.4 c 0,0 -25.69,57.8 -25.69,77 0,19.3 6.42,64.3 19.26,77.1 12.86,12.9 44.97,12.9 51.4,64.3 6.42,51.4 57.82,282.6 83.51,379 25.7,96.3 179.87,456.1 179.87,456.1 0,0 -102.78,-109.2 -154.17,-134.9 -51.39,-25.7 -38.54,0 -38.54,0 0,0 -51.39,-25.7 -141.33,-38.6 -89.94,-12.8 -70.67,12.9 -70.67,12.9 0,0 44.97,-19.3 -89.93,-12.9 -134.91,6.5 -186.29,19.3 -186.29,19.3 l 12.84,12.9 -70.66,6.4 c 0,0 -77.09,38.5 -134.91,64.2 -57.81,25.7 -12.85,25.7 -12.85,25.7 0,0 -128.48,96.4 -160.6,115.7 -32.11,19.2 -83.51,89.9 -83.51,89.9 l 32.13,-12.9 -19.28,32.2 c 0,0 -141.33,134.9 -154.18,179.8 -12.84,45 -32.12,90 -19.26,102.8 12.84,12.9 147.74,19.3 218.41,-25.7 70.66,-44.9 211.99,-205.5 391.87,-250.5 179.87,-45 411.12,-6.4 635.96,205.6 224.85,211.9 558.89,603.8 591.02,629.5 32.11,25.7 51.36,64.2 51.36,64.2 0,0 -44.94,-32.1 -57.79,-38.5 -12.85,-6.4 32.11,38.5 83.53,96.4 51.41,57.8 51.41,44.9 51.41,57.8 0,12.8 205.54,276.2 263.34,321.2 57.8,44.9 276.21,134.9 276.21,134.9 0,0 725.91,147.7 790.18,141.3 64.28,-6.4 449.7,-6.4 770.9,-64.2 321.2,-57.8 892.9,-96.4 1034.3,-77.1 141.2,19.3 321.1,32.1 391.8,38.5 70.7,6.5 173.5,-6.4 173.5,-6.4 l 109.2,-6.4 c 0,0 109.2,-25.7 192.7,-19.3 83.5,6.4 147.8,-12.8 179.8,12.9 32.2,25.7 102.8,64.2 102.8,64.2 l 122.1,12.8 c 0,0 257,19.3 379,90 122.1,70.6 295.5,173.4 295.5,173.4 0,0 -6.4,96.4 19.3,122.1 25.7,25.7 102.8,96.3 128.4,102.8 25.8,6.4 38.6,12.8 70.7,-12.9 32.2,-25.7 57.8,-38.5 70.7,-70.6 12.9,-32.2 32.1,-83.6 32.1,-83.6 0,0 57.8,57.9 90,83.6 32.1,25.7 70.6,64.2 96.3,38.5 25.7,-25.7 38.5,-19.3 25.7,-64.2 -12.8,-45 -19.3,-83.6 -38.6,-122.1 -19.2,-38.5 -19.2,-51.4 -19.2,-51.4" /><path
             id="path30"
             style="fill:#191919;fill-opacity:1;fill-rule:nonzero;stroke:none"
             d="m 7246.82,6173.87 c 0,0 -317.65,-61.48 -522.58,225.45 -204.93,286.91 -266.42,666.04 -399.62,758.26 -133.21,92.21 -189.56,169.06 -333.01,128.08 -143.46,-40.99 -338.15,-122.96 -358.64,-153.7 -20.49,-30.75 51.24,-61.48 51.24,-61.48 0,0 71.72,0 174.19,30.73 102.46,30.75 235.67,20.5 276.66,-40.98 40.99,-61.48 112.71,-122.96 143.45,-204.93 30.74,-81.98 -10.25,-40.99 -10.25,-40.99 0,0 -10.24,-102.46 51.24,-163.96 61.48,-61.48 133.21,-143.42 122.96,-174.21 -10.25,-30.69 81.97,-184.43 81.97,-184.43 l -10.25,-51.25 51.23,-51.16 c 0,0 30.75,-41.01 81.98,-71.79 51.23,-30.7 -10.25,-30.7 -10.25,-30.7 0,0 92.22,-61.48 122.97,-71.71 30.73,-10.23 92.21,-61.48 92.21,-61.48 0,0 215.18,-102.49 389.38,-112.72 20.49,-20.55 0,-92.26 0,-92.26 0,0 -133.21,0 -153.7,-51.25 -20.5,-51.24 -40.99,-194.66 30.73,-204.89 71.73,-10.24 102.48,0 102.48,0 0,0 71.72,10.23 122.95,0 51.23,-10.24 102.47,0 102.47,0 l 20.49,61.47 c 0,0 20.5,41.02 92.22,20.47 71.72,-20.47 102.47,-20.47 133.21,0 30.74,20.55 51.24,92.26 51.24,92.26 0,0 215.17,41.01 256.12,20.46 41.01,-20.46 112.72,-41.01 112.72,-41.01 0,0 30.78,-40.93 61.48,-40.93 30.78,0 41.01,-51.25 41.01,-51.25 0,0 -20.46,-41.01 0,-51.24 20.47,-10.23 184.43,-10.23 256.15,-10.23 71.79,0 112.72,-10.24 122.95,20.46 10.32,30.78 0,51.25 0,51.25 l 82.03,-10.24 c 0,0 112.72,-10.23 133.19,30.78 20.46,40.93 30.69,51.17 0,102.41 -30.78,51.25 -41.02,82.03 -41.02,82.03 l -81.94,30.7 -71.71,10.23 c 0,0 143.42,51.24 235.68,133.19 92.18,82.02 317.62,245.99 276.61,522.6 -40.93,276.67 -61.48,389.39 -92.18,471.36 -30.78,81.98 -71.71,92.22 -92.25,194.69 -20.47,102.46 -81.95,266.41 -133.19,389.37 -51.25,122.96 -184.44,409.87 -348.41,594.31 -163.97,184.44 -256.14,245.92 -256.14,245.92 0,0 0,-30.74 -20.47,30.74 -20.54,61.47 -51.24,143.45 -61.48,153.7 -10.31,10.24 -102.49,153.7 -102.49,153.7 0,0 20.47,102.46 20.47,174.19 0,71.72 41.01,225.42 41.01,225.42 l 30.7,81.98 10.31,92.22 c 0,0 51.17,143.45 71.72,194.69 20.46,51.22 40.93,143.45 30.69,163.94 -10.23,20.5 20.55,102.47 -61.47,122.96 -81.95,20.49 -153.66,-10.24 -225.42,-92.22 -71.72,-81.97 -225.42,-235.67 -235.66,-245.92 -10.25,-10.25 -368.89,30.74 -461.1,-20.49 -61.48,81.98 -358.64,368.88 -358.64,368.88 0,0 -204.93,71.72 -204.93,-81.97 0,-153.71 71.73,-368.88 81.98,-409.87 10.24,-40.99 10.24,-92.22 10.24,-92.22 l 20.49,-30.74 c 0,0 30.74,-61.48 20.49,-112.71 -10.24,-51.24 61.49,-317.65 92.23,-348.39 30.74,-30.74 61.48,-81.97 51.23,-122.96 -10.25,-40.99 -40.99,-92.22 -40.99,-92.22 0,0 -92.22,-174.19 -61.48,-338.14 30.74,-163.95 276.66,-942.69 297.15,-1004.17 20.5,-61.48 10.25,-194.69 10.25,-194.69 l 40.99,-204.93 20.5,-122.93 c 0,0 -51.24,-41.01 -51.24,-112.72 0,-71.71 40.99,-245.91 61.48,-266.46 20.49,-20.46 15.37,-56.36 15.37,-56.36" /><path
             id="path32"
             style="fill:#191919;fill-opacity:1;fill-rule:nonzero;stroke:none"
             d="m 5347.72,8797.48 c 0,0 207.2,-182.82 243.76,-243.76 36.57,-60.94 60.95,-158.44 60.95,-207.19 0,-48.75 85.32,-121.88 85.32,-121.88 0,0 60.93,-12.19 36.55,-85.32 -24.37,-73.13 -24.37,-73.13 -24.37,-73.13 0,0 0,-12.18 -12.18,-73.13 -12.2,-60.93 -36.57,-85.31 -36.57,-85.31 L 5676.8,7859 c 0,0 -207.19,-73.12 -292.51,-85.31 -85.32,-12.19 -134.07,-109.69 -134.07,-195.01 0,-85.31 79.22,-457.05 -103.59,-627.68 -182.83,-170.63 -329.08,-207.2 -438.77,-365.65 -109.7,-158.45 -182.82,-316.9 -158.45,-438.74 24.38,-121.91 60.95,-280.37 73.13,-304.75 12.19,-24.31 97.51,-24.31 97.51,-24.31 0,0 146.25,0 170.63,-48.76 24.37,-48.77 0,-146.3 0,-146.3 h -97.51 l -12.19,-36.54 h -48.75 c 0,0 73.13,-146.3 -12.18,-158.45 -85.32,-12.15 -109.69,0 -109.69,0 h -243.77 c 0,0 -97.5,-12.15 -146.26,109.69 -48.75,121.91 -121.88,280.36 -195,377.82 -73.13,97.53 -97.5,158.45 -97.5,158.45 l -195.01,-170.6 c 0,0 -24.38,-48.77 24.37,-48.77 48.75,0 146.26,0 146.26,-60.92 0,-61 36.56,-109.69 -36.57,-134.07 -73.12,-24.38 -146.25,-24.38 -146.25,-24.38 h -134.08 c 0,0 97.52,-48.77 73.14,-97.53 -24.38,-48.77 -109.69,-146.23 -158.44,-109.69 -48.76,36.54 -73.13,-12.15 -73.13,-12.15 l -48.76,24.3 h -48.75 c 0,0 12.19,36.62 -85.32,36.62 -97.5,0 -121.88,24.38 -329.07,0 -207.19,-24.39 -329.07,0 -329.07,0 0,0 -402.21,-97.54 -597.22,12.15 0,0 -109.69,0 -158.44,-24.38 -48.75,-24.39 -524.08,-24.39 -938.474,0 -414.391,24.38 -392.907,18.22 -514.786,66.91 C 256.348,5579.71 -11.7852,5835.7 0.402344,6091.61 12.5898,6347.59 195.41,6615.73 207.598,6481.66 c 12.191,-134.07 -48.754,-414.44 97.504,-511.89 146.253,-97.53 158.445,-182.83 511.894,-207.22 353.454,-24.38 149.145,-6 149.145,-6 0,0 560.649,0 682.529,61 121.88,60.92 170.63,194.99 158.44,463.13 -12.18,268.14 48.75,524.07 48.75,524.07 0,0 182.82,536.26 597.22,816.59 414.39,280.32 633.78,292.51 853.15,280.32 219.39,-12.18 268.14,36.57 268.14,36.57 l 231.57,-12.18 c 0,0 85.32,-60.95 170.64,0 85.31,60.93 304.69,195 414.39,475.32 109.69,280.33 390.01,402.2 390.01,402.2 0,0 121.89,182.82 158.45,195.02 36.56,12.18 85.31,0 97.5,-60.95 12.19,-60.94 12.19,-97.5 12.19,-97.5 l 97.51,48.75 c 0,0 97.5,109.7 158.43,170.63 60.95,60.94 170.64,170.64 170.64,146.26 0,-24.37 -24.38,-97.5 -60.94,-170.63 -36.57,-73.13 -97.51,-207.2 -67.04,-237.67" /><path
             id="path34"
             style="fill:#191919;fill-opacity:1;fill-rule:nonzero;stroke:none"
             d="m 11867,9420.1 c -45.4,-28.4 -124.9,-56.81 -181.8,-45.45 -56.7,11.36 -68.1,34.09 -159.1,22.73 -90.9,-11.37 -147.6,0 -215.8,-22.73 -68.2,-22.72 -56.9,-62.49 -136.4,-22.72 -79.5,39.77 -119.3,45.45 -142,68.17 -22.8,22.73 -108,68.18 -108,68.18 0,0 -244.2,249.98 -306.7,284.08 -62.6,34.08 -153.5,96.58 -193.2,0 -39.8,-96.59 -34.1,-181.82 0,-278.4 34.1,-96.58 62.5,-221.58 56.8,-295.43 -5.7,-73.86 0,-119.31 11.4,-164.76 11.4,-45.46 0,-73.86 34.1,-102.27 34,-28.4 45.4,-56.81 34,-90.9 -11.3,-34.09 -147.6,-198.85 -130.6,-261.34 17,-62.5 34,-284.07 96.6,-374.98 62.5,-90.9 90.9,-102.26 102.2,-204.53 11.4,-102.26 0,-295.43 -39.7,-409.06 -39.8,-113.63 -62.5,-198.85 -51.2,-295.43 11.4,-96.58 39.8,-45.45 22.7,-159.08 -17,-113.62 56.9,-68.17 -28.4,-181.8 -85.2,-113.63 -187.4,-210.21 -136.3,-380.62 51.1,-170.44 102.3,-267.02 125,-375.03 22.7,-107.92 85.2,-90.89 17,-164.76 -68.2,-73.87 -159.1,-17.03 -193.1,-96.58 -34.2,-79.54 -79.6,-232.96 -79.6,-295.39 0,-62.52 -5.7,-113.69 39.8,-119.36 45.4,-5.68 85.2,0 85.2,0 0,0 28.4,-11.35 68.2,-22.71 39.8,-11.35 107.9,0 107.9,0 l 22.8,-5.68 130.6,39.74 79.6,45.49 c 0,0 22.7,-22.71 68.2,17.02 45.4,39.82 90.9,107.93 90.9,107.93 l 34,62.52 c 0,0 88.1,36.93 122.2,116.48 34.1,79.55 51.1,176.12 51.1,176.12 0,0 17.1,62.52 56.8,56.84 39.8,-5.68 113.7,-34.14 85.2,-68.19 -28.4,-34.06 -79.5,-73.87 -79.5,-73.87 0,0 -85.2,-51.09 -90.9,-153.42 -5.7,-102.25 -56.8,-198.82 5.7,-227.2 62.5,-28.46 159,-79.55 159,-79.55 l 62.6,11.35 c 0,0 -39.8,-51.16 56.8,-34.05 96.6,17.02 176.1,34.05 176.1,34.05 0,0 0,-5.67 85.2,17.03 85.3,22.71 142,11.35 187.5,73.87 45.4,62.52 -28.4,79.55 164.8,181.8 193.1,102.25 664.7,244.31 846.5,261.34 181.8,17.03 164.8,5.68 323.8,119.28 159.1,113.68 198.9,164.77 278.4,255.67 79.6,90.97 79.6,90.97 102.3,90.97 22.7,0 85.2,-5.76 85.2,-5.76 0,0 147.7,5.76 159.1,96.66 11.4,90.86 51.1,11.35 0,159.04 -51.2,147.72 -73.9,79.54 -56.8,176.13 17,96.58 176.1,454.51 113.6,727.22 -62.5,272.7 -170.5,482.92 -198.9,573.81 -28.3,90.91 -102.2,323.85 -272.6,374.98 -170.5,51.13 -284.1,22.72 -363.6,0 -79.6,-22.73 -79.6,-34.09 -204.6,22.72 -125,56.82 -261.4,68.18 -278.4,68.18 -17,0 -119.3,-11.36 -119.3,-11.36 0,0 -85.2,90.91 -90.9,136.36 -5.6,45.44 11.4,90.89 11.4,90.89 0,0 73.9,113.63 62.4,187.49 -11.3,73.86 11.5,210.21 34.2,249.98 22.7,39.78 28.3,272.71 22.7,346.57 -5.7,73.86 -39.8,124.98 -102.3,107.94 -62.5,-17.04 -221.6,-107.94 -267,-159.08 -45.5,-51.13 -252.9,-247.14 -252.9,-247.14" /></g></g></g></g></svg>