<?xml version="1.0" encoding="UTF-8" standalone="no"?>
<svg
   xmlns:dc="http://purl.org/dc/elements/1.1/"
   xmlns:cc="http://creativecommons.org/ns#"
   xmlns:rdf="http://www.w3.org/1999/02/22-rdf-syntax-ns#"
   xmlns:svg="http://www.w3.org/2000/svg"
   xmlns="http://www.w3.org/2000/svg"
   id="svg8"
   version="1.1"
   viewBox="0 0 584.18677 100.78886"
   height="100.78886mm"
   width="584.18677mm">
  <defs
     id="defs2">
    <clipPath
       id="clipPath20"
       clipPathUnits="userSpaceOnUse">
      <path
         id="path18"
         d="M 0,0 H 5782.82 V 5115 H 0 Z" />
    </clipPath>
    <clipPath
       id="clipPath1794"
       clipPathUnits="userSpaceOnUse">
      <path
         id="path1792"
         d="m 3236.28,782.27 211.34,-69.911 -79.64,-58.519 -147.97,84.531 16.27,43.899" />
    </clipPath>
    <clipPath
       id="clipPath1804"
       clipPathUnits="userSpaceOnUse">
      <path
         id="path1802"
         d="m 3112.06,292.852 222.56,4.089 -55.75,-81.632 -167.61,30.742 0.8,46.801" />
    </clipPath>
    <clipPath
       id="clipPath1814"
       clipPathUnits="userSpaceOnUse">
      <path
         id="path1812"
         d="m 3187.51,905.832 139.81,17.879 -14.62,-87.801 -100.8,-6.5 -24.39,76.422" />
    </clipPath>
    <clipPath
       id="clipPath1824"
       clipPathUnits="userSpaceOnUse">
      <path
         id="path1822"
         d="M 0,0 V 5115 H 5783 V 0 Z" />
    </clipPath>
    <clipPath
       id="clipPath20-1"
       clipPathUnits="userSpaceOnUse">
      <path
         id="path18-7"
         d="M 0,0 H 14414 V 14665.7 H 0 Z" />
    </clipPath>
  </defs>
  <metadata
     id="metadata5">
    <rdf:RDF>
      <cc:Work
         rdf:about="">
        <dc:format>image/svg+xml</dc:format>
        <dc:type
           rdf:resource="http://purl.org/dc/dcmitype/StillImage" />
        <dc:title></dc:title>
      </cc:Work>
    </rdf:RDF>
  </metadata>
  <g
     transform="translate(323.67184,-62.382177)"
     id="layer1">
    <g
       transform="matrix(0.35277777,0,0,-0.35277777,-373.20932,504.91748)"
       id="g10">
      <g
         transform="scale(0.125085)"
         id="g12">
        <g
           id="g14">
          <g
             clip-path="url(#clipPath20-1)"
             id="g16">
            <path
               id="path24"
               style="fill:#191919;fill-opacity:1;fill-rule:nonzero;stroke:none;stroke-width:0.34303471"
               d="m 7524.2202,9104.0346 c 0,0 -45.0405,6.9121 -55.4,0 -10.394,-6.9362 -69.2588,-3.4543 -90.0124,3.4577 -20.7879,6.9362 -51.9697,24.2423 -65.7941,20.7879 -13.8586,-3.4851 -20.7535,20.7606 -20.7535,20.7606 0,0 -65.7941,148.8838 -76.1881,159.2778 -10.3939,10.3939 -41.5758,55.3967 -69.2586,0 -27.683,-55.3967 -24.2526,-159.2778 -24.2526,-162.7356 0,-3.4544 -6.895,-79.639 -6.895,-79.639 v -45.0027 c 0,0 -10.394,-55.3967 -27.7172,-76.1846 -17.3233,-20.7605 -39.7921,-74.4283 -36.3617,-109.0644 3.4647,-34.6363 10.394,-79.6424 10.394,-79.6424 0,0 -65.7941,34.6397 -93.477,62.3363 -27.6829,27.7 -65.7941,41.5483 -72.7234,38.094 -6.9293,-3.4853 -103.8709,38.0631 -131.5537,51.9114 -27.7172,13.8517 -100.4406,62.3363 -152.3761,72.7303 -51.9355,10.3664 -263.1317,20.7604 -294.286,20.7604 -31.1819,0 -90.0329,-6.9122 -90.0329,-6.9122 l -10.394,-10.3939 6.9362,-10.394 c 0,0 -17.3302,3.4578 -31.1784,0 -13.8518,-3.4543 -31.1545,-6.9087 -31.1545,-6.9087 l -13.8483,-3.4578 -13.8517,-6.9361 v -3.4578 l -10.3905,-3.4818 v -6.9122 l -58.8545,-3.4544 24.2422,-10.3939 c 0,0 -20.7879,-6.9362 -31.1783,-10.394 -10.37,-3.4543 17.3301,-10.3939 17.3301,-10.3939 l -6.9397,-13.8483 -13.8482,-6.9121 c 0,0 -13.8484,0 -31.1545,-3.4544 -17.3026,-3.4818 -72.7268,-45.0302 -72.7268,-45.0302 l -20.7604,-10.394 -6.9396,-17.3026 -31.1544,-3.4578 v -13.8483 l -10.3906,-6.9396 -6.9121,-13.8483 -20.7879,-17.3061 -20.7605,-6.9088 v -10.3939 l 24.2423,-6.9396 c 0,0 -17.3301,-17.3026 -34.6362,-27.6966 -17.3027,-10.3939 -34.6362,-13.8483 -34.6362,-13.8483 l -13.8483,-10.394 h 24.2423 l -24.2423,-6.9121 h 17.3301 l -6.9362,-20.7879 -24.2319,-10.3665 h 20.7741 l -10.3905,-10.394 17.3027,-3.4543 -62.3123,-45.0302 13.8483,-17.3061 -13.8483,-17.3027 h 24.2354 c 0,0 -38.0837,-62.3362 -34.6259,-79.6389 3.4647,-17.3061 -10.3871,-51.9424 -10.3871,-51.9424 l -13.8449,-20.7879 24.232,20.7879 13.8518,24.2423 v -34.6362 l -17.3096,-27.6966 -10.3905,-10.3939 -10.3837,-13.8484 -10.3905,-51.9149 24.2354,27.6967 -3.4612,-31.1818 c 0,0 -17.313,-24.2149 -20.7742,-38.0632 -1.427,-5.7321 -2.8575,-12.0392 -4.0444,-17.47 -1.6843,-7.7331 -2.8815,-13.7119 -2.8815,-13.7119 v -13.8486 l 24.2389,27.6987 c 0,0 0,-20.7605 -10.3871,-41.5473 -10.3871,-20.7606 -17.313,-45.0035 -13.8518,-69.2465 3.4647,-24.2428 10.3871,-55.3959 10.3871,-55.3959 l 3.4647,24.2416 10.3871,-34.6359 3.4612,10.3943 24.2388,-31.1544 3.4613,-38.0916 c 0,0 38.0905,-20.7886 51.9388,-34.6373 13.8518,-13.8486 17.3062,-13.8486 48.4605,-17.3044 31.1819,-3.456 155.8236,-24.243 245.8565,-20.7872 90.0054,3.4826 325.4678,-6.9116 325.4678,-6.9116 0,0 623.2461,-27.6973 740.9413,-17.3045 117.7295,10.3661 259.7116,6.9116 259.7116,6.9116 0,0 62.2951,3.4545 69.2587,20.7871 6.895,17.3046 -20.7879,34.609 -51.9697,34.609 -31.1476,0 -31.1476,0 -31.1476,0 l 62.3294,6.9386 45.0062,-3.4561 c 0,0 41.5415,3.4561 65.7597,27.6987 24.2526,24.2148 24.2526,34.6091 24.2526,45.0034 0,10.3929 -10.394,48.4578 -10.394,48.4578 l -17.2889,31.1812 -6.9293,13.85 -3.4646,34.6091 c 0,0 48.4707,117.7309 51.9354,155.8249 3.4646,38.0905 10.3939,79.6389 10.3939,79.6389 l 34.6465,62.3054 -10.3939,17.3335 10.3939,31.1545 v 27.6966 l 10.3597,3.4544 v 20.7879 c 0,0 3.4647,-13.8484 0,3.4543 -3.4646,17.3061 -3.4646,17.3061 -3.4646,17.3061 l 3.4646,3.4853 v 3.4543 l 6.9293,10.3939 v 6.9122 l 10.394,17.3027 v 10.3939 c 0,0 -3.499,-3.4578 0,10.394 3.4646,13.8483 -27.683,-13.8518 0,13.8483 27.6828,27.7 20.7535,17.3061 27.6828,27.7 6.9293,10.3906 38.0769,107.3356 45.0062,128.096 6.9636,20.7879 0,65.7907 0,65.7907 l -6.9293,48.4845 10.394,41.5484 c 0,0 48.5051,72.7028 41.5414,159.2813 -6.8949,86.5476 -13.8242,145.4021 -48.4365,145.4021 -34.6465,0 -69.2586,-17.306 -93.5112,-51.9148 -24.2183,-34.6363 -107.3355,-128.127 -122.9094,-133.3102" />
            <path
               id="path26"
               style="fill:#191919;fill-opacity:1;fill-rule:nonzero;stroke:none;stroke-width:0.51129842"
               d="m 9440.9796,9247.0561 c 0,0 -55.0924,20.964 -70.8404,34.104 -15.7429,13.14 -13.1148,23.622 -13.1148,23.622 l 13.1148,28.837 2.628,26.23 15.7429,39.37 18.3659,34.103 c 0,0 44.6005,68.208 57.7153,91.83 13.1199,23.622 26.2399,73.473 26.2399,73.473 v 13.141 c 0,0 -47.2236,2.607 -78.7144,-18.407 -31.4807,-20.963 -76.0812,-31.445 -76.0812,-31.445 0,0 -31.4858,-7.874 -52.4746,-2.659 -20.9888,5.267 -78.7093,31.496 -78.7093,31.496 0,0 -91.8291,44.585 -104.9491,47.244 -13.1199,2.608 -31.4857,7.874 -31.4857,7.874 0,0 -15.7429,73.4227 -26.2347,91.8287 -10.497,18.356 -36.7317,99.704 -57.7256,94.437 -20.9888,-5.266 -39.3547,-34.103 -44.6006,-73.473 -5.2459,-39.37 -18.3658,-99.704 -23.6169,-115.4517 -5.2408,-15.748 -23.6118,-47.192 -26.2347,-60.333 -2.623,-13.089 -15.7429,-31.496 -15.7429,-31.496 l -47.2235,-47.193 v -47.244 l -7.874,-10.481 10.4969,-13.141 -10.4969,-7.874 15.7429,-7.874 -7.8689,-5.215 5.2459,-5.266 -13.1199,-13.141 15.7429,-41.977 c 0,0 0,-28.837 7.8688,-47.193 7.874,-18.356 18.3659,-99.703 26.2399,-136.466 7.874,-36.711 2.6229,-160.036 -10.497,-215.103 -13.1148,-55.118 2.623,-110.236 2.623,-110.236 0,0 7.874,-94.436 49.8567,-157.377 41.9776,-62.992 62.9664,-141.681 34.1036,-173.177 -28.8628,-31.496 -154.7956,-136.414 -186.2762,-173.177 -31.4909,-36.711 -128.566,-133.807 -128.566,-133.807 0,0 -62.9674,-68.207 -78.7098,-91.829 -15.7424,-23.622 -20.9914,-23.622 -13.1179,-31.496 7.871,-7.874 -18.3668,-34.103 -13.1199,-49.851 5.2464,-15.748 10.4954,-23.622 28.8602,-26.23 18.3669,-2.608 31.4848,-7.874 31.4848,-7.874 0,0 41.9786,5.266 60.3429,18.356 18.3669,13.14 47.2297,47.244 47.2297,47.244 l 18.3648,28.888 c 0,0 10.4944,13.089 18.3684,18.356 7.8688,5.215 28.8628,49.851 28.8628,49.851 0,0 0,-10.533 15.7377,-5.266 15.7429,5.266 28.8577,47.244 62.9715,60.333 34.1036,13.14 160.0416,70.866 160.0416,70.866 0,0 154.8007,65.6 178.4124,81.348 23.6118,15.696 65.5945,62.94 65.5945,62.94 0,0 15.7378,7.874 28.8577,-10.481 13.1199,-18.356 34.1087,-68.207 34.1087,-68.207 0,0 15.7429,-70.866 23.6118,-112.844 7.874,-41.978 44.6056,-160.036 18.3709,-220.37 -26.2398,-60.333 -23.6168,-99.703 -52.4796,-97.095 -28.8577,2.607 -62.9715,10.481 -94.4522,-28.837 -31.4806,-39.37 -34.1087,-65.6 -15.7429,-68.208 18.3659,-2.658 15.7429,-2.658 28.8628,-7.874 13.1199,-5.266 41.9776,0 41.9776,0 0,0 15.7429,0 55.0975,-2.658 39.3598,-2.608 62.9715,10.532 62.9715,10.532 l 39.3496,41.927 c 0,0 18.3709,34.155 31.4908,49.851 13.1148,15.748 23.6118,28.889 34.1036,68.259 10.497,39.319 13.12,107.577 13.12,107.577 l 78.7092,364.658 c 0,0 10.497,55.118 49.8567,62.992 39.3496,7.874 230.8819,28.837 278.1106,-5.266 47.2235,-34.104 65.5893,-18.356 99.6929,-76.082 34.1144,-57.725 28.8624,-76.081 47.2284,-123.325 18.366,-47.193 5.251,-70.815 28.863,-89.17 23.611,-18.407 31.485,-28.889 39.349,-49.852 7.874,-21.014 39.36,-89.221 -39.349,-125.933 -78.7092,-36.762 -141.6807,-86.614 -173.1665,-78.74 -31.4806,7.874 -107.5669,-5.266 -104.944,-39.37 2.6179,-34.103 13.1148,-68.207 47.2287,-60.333 28.8576,-5.266 89.2011,-20.963 136.4297,-5.266 47.2231,15.748 133.8011,52.51 228.2581,104.969 94.453,52.46 139.058,86.614 141.681,104.97 2.628,18.356 -13.12,23.622 -10.497,41.978 2.628,18.355 15.743,99.703 26.24,146.896 10.492,47.244 0,104.969 0,125.932 0,21.015 139.058,-81.296 212.516,-110.184 73.463,-28.838 354.202,-99.704 388.311,-120.667 34.109,-21.014 36.726,-26.229 47.223,-70.866 10.497,-44.585 28.863,-167.91 10.497,-162.644 -18.365,5.215 -86.578,-5.266 -89.206,-44.636 -2.623,-39.319 5.246,-83.955 31.486,-73.423 26.235,10.482 39.355,-2.658 39.355,-2.658 h 78.709 c 0,0 28.863,-7.874 47.228,39.37 18.366,47.244 36.732,102.31 31.481,152.162 -5.246,49.852 0,238.776 0,238.776 0,0 13.12,78.689 -26.235,91.83 -39.354,13.089 -170.538,123.325 -230.887,202.014 -60.343,78.739 -62.966,94.436 -60.343,167.91 2.623,73.474 -15.743,146.947 -34.109,183.658 -18.366,36.763 -31.481,99.703 -2.623,133.807 28.863,34.104 170.539,112.844 217.767,202.014 47.229,89.222 28.863,65.6 28.863,65.6 l 13.115,57.725 13.12,36.763 2.623,26.229 -13.12,-18.355 13.12,49.851 7.874,34.104 2.623,26.229 c 0,0 23.612,125.933 15.743,162.6437 -7.874,36.763 -23.617,65.6 -23.617,65.6 l 7.874,-39.37 c 0,0 -10.497,28.888 -20.989,70.866 -10.497,41.978 -49.852,97.044 -49.852,97.044 l -53.865,64.68 -11.724,14.06 c 0,0 -36.737,39.37 -60.349,52.46 -23.611,13.14 -57.72,28.8882 -57.72,28.8882 l 5.246,-10.533 c 0,0 -20.989,18.407 -65.59,23.622 -29.9,3.528 -59.801,2.352 -76.27,1.176 -8.089,-0.613 -12.936,-1.176 -12.936,-1.176 0,0 -57.725,-2.607 -81.337,-10.481 -23.612,-7.874 -41.978,-21.0152 -41.978,-21.0152 0,0 -7.869,-7.874 -28.857,-20.963 -20.994,-13.14 -47.234,-26.23 -47.234,-26.23 l -35.418,-35.433 -6.555,-6.544 v -26.23 c 0,0 -13.119,2.608 2.618,-13.14 15.748,-15.748 20.994,-39.37 44.606,-28.837 23.612,10.481 18.366,7.874 57.72,20.963 39.355,13.14 123.315,55.118 215.145,0 91.829,-55.118 170.538,-118.059 165.292,-272.8797 -5.246,-154.77 -2.623,-322.681 -230.887,-467.02 -68.217,-23.571 -162.669,2.659 -204.647,26.281 -41.978,23.57 -396.18,165.251 -571.9636,188.873 -175.7895,23.622 -244.007,-2.607 -291.2305,-15.748 -47.2286,-13.089 -120.692,-68.207 -194.1553,-70.815" />
            <path
               id="path28"
               style="fill:#191919;fill-opacity:1;fill-rule:nonzero;stroke:none;stroke-width:0.45508012"
               d="m 4547.8774,9464.2499 c 0,0 134.4761,-73.086 154.9547,-128.605 20.4786,-55.566 20.4786,-64.349 20.4786,-102.348 0,-37.999 14.5626,-64.303 20.4331,-70.173 5.8706,-5.825 35.0867,-43.824 29.2617,-67.216 -5.8705,-23.391 -14.6536,-32.174 -14.6536,-32.174 0,0 -40.9117,-58.478 -75.9984,-73.086 -35.0866,-14.608 -70.1733,-8.737 -105.26,0 -35.0412,8.783 -105.2145,0 -149.0842,-8.737 -43.8243,-8.783 -119.8682,-38.045 -122.7807,-55.565 -2.9125,-17.567 0,-160.7803 0,-160.7803 0,0 14.6081,-149.0842 73.0859,-213.4326 58.4778,-64.3028 143.2592,-166.6048 181.2584,-189.9959 37.9992,-23.3911 78.9109,-76.0439 78.9109,-76.0439 0,0 55.5653,-61.3903 78.9564,-70.1278 23.3911,-8.7831 52.6073,-49.6948 52.6073,-49.6948 0,0 43.8697,-17.5661 58.4778,-17.5661 14.608,0 67.2608,-14.6081 70.1733,-43.8242 2.9125,-29.2617 0,-61.4358 -26.3036,-70.1734 -26.3036,-8.783 -78.9564,-17.5661 -87.7395,-11.6955 -8.7375,5.825 -14.608,11.6955 -14.608,11.6955 l -14.6081,8.7376 -23.3911,-2.9125 c 0,0 -20.4786,-8.7376 -40.9117,5.8705 -20.4786,14.6081 -38.0447,23.3911 -38.0447,23.3911 l -20.4331,8.7376 c 0,0 -14.6081,23.3911 -43.8697,40.9572 -29.2162,17.5206 -61.3903,35.0866 -61.3903,35.0866 0,0 -204.6496,149.0843 -286.473,192.9085 -81.8689,43.8697 -151.9967,125.7386 -236.8237,134.4762 -84.7814,8.783 -108.1725,8.783 -131.5636,23.3911 -23.3457,14.6536 -52.6073,46.7822 -52.6073,46.7822 v 11.6956 c 0,0 -81.8689,-46.7822 -137.3887,-116.9101 -55.5198,-70.1733 -102.3475,-163.7378 -116.9556,-201.737 -14.6081,-37.9992 -46.7822,-102.302 -46.7822,-102.302 0,0 -5.8251,-23.3911 -5.8251,-35.0867 0,-11.6956 -2.958,-32.1742 11.6956,-52.6528 14.6081,-20.4331 37.9992,-14.608 37.9992,-14.608 0,0 37.9992,-8.7376 49.6947,-32.1287 11.6956,-23.3911 5.8706,-64.3483 -5.825,-70.1733 -11.6955,-5.8706 -32.1741,0 -32.1741,0 l -20.4787,-8.7831 -23.3911,5.8705 c 0,0 -43.8242,-14.6535 -87.6939,-5.8705 -43.8242,8.7831 -61.3903,29.2162 -70.1279,55.5653 -8.783,26.3036 -17.5661,84.7814 -17.5661,84.7814 v 58.4323 c 0,0 -11.6955,32.1742 0,58.4778 11.6956,26.3036 40.9573,93.5645 46.7823,154.9548 5.825,61.3903 20.4786,166.6503 20.4786,166.6503 l 2.9125,67.2154 c 0,0 -119.8681,-35.0867 -207.562,-43.8243 -87.7395,-8.783 -228.0407,2.9126 -228.0407,2.9126 l -213.4235,-17.5661 -20.4467,-17.5206 -195.8802,-230.9532 c 0,0 -23.3956,-49.6947 11.7138,-75.9984 35.073,-26.3036 105.2191,-96.477 122.7897,-102.3475 17.5343,-5.825 23.3547,-14.6081 52.6073,-5.825 29.2161,8.783 64.321,-11.6956 64.321,-11.6956 l 40.9299,-35.0866 c 0,0 8.7694,-14.6081 -2.9444,-37.9992 -11.6819,-23.3912 -46.7503,-32.1742 -46.7503,-32.1742 h -152.0423 l -35.0685,5.8705 -11.7183,14.6081 -46.7504,23.3911 c 0,0 -125.6977,105.2601 -175.3924,163.6923 -49.6993,58.4778 -90.6292,108.1726 -84.8087,134.4762 5.8568,26.3037 38.0219,84.7814 38.0219,84.7814 0,0 11.6774,35.0867 20.4468,58.4778 8.7648,23.3912 14.6262,43.8698 14.6262,43.8698 0,0 -371.2771,-78.9564 -447.2846,-55.5653 -76.0075,23.3911 -119.859,-78.9109 -119.859,-78.9109 0,0 -99.394,-233.9112 -105.2418,-254.3443 -5.8523,-20.4786 -29.2343,-73.0859 -49.7039,-75.9984 -20.4604,-2.958 -55.5425,0 -67.2335,11.6501 -11.7001,11.6955 -14.6172,26.3491 -14.6172,26.3491 l 5.8433,23.3911 c 0,0 -11.691,26.3037 -11.691,35.0412 0,8.7831 2.9216,29.2617 8.7648,35.0867 5.8523,5.8705 20.465,5.8705 23.3911,29.2616 2.9216,23.3912 26.3127,128.6057 38.0038,172.4754 11.6955,43.8242 81.8552,207.562 81.8552,207.562 0,0 -46.7731,-49.6947 -70.1597,-61.3903 -23.3866,-11.6955 -17.5388,0 -17.5388,0 0,0 -23.3865,-11.6955 -64.3164,-17.5661 -40.93,-5.825 -32.1606,5.8706 -32.1606,5.8706 0,0 20.465,-8.7831 -40.9253,-5.8706 -61.3949,2.9581 -84.7769,8.7831 -84.7769,8.7831 l 5.8432,5.8705 -32.1559,2.9125 c 0,0 -35.0821,17.5206 -61.3949,29.2162 -26.3082,11.6955 -5.8478,11.6955 -5.8478,11.6955 0,0 -58.4687,43.8698 -73.0858,52.6528 -14.6127,8.7376 -38.0038,40.9117 -38.0038,40.9117 l 14.6218,-5.8705 -8.774,14.6536 c 0,0 -64.3165,61.3903 -70.1642,81.8234 -5.8433,20.4786 -14.6172,40.9572 -8.7649,46.7822 5.8432,5.8705 67.2335,8.7831 99.3941,-11.6956 32.1559,-20.433 96.4724,-93.5189 178.3322,-113.9975 81.8553,-20.4786 187.0926,-2.9125 289.4128,93.5645 102.3247,96.4314 254.3397,274.7773 268.9614,286.4733 14.6126,11.695 23.3729,29.216 23.3729,29.216 0,0 -20.4513,-14.608 -26.299,-17.521 -5.8478,-2.912 14.6126,17.521 38.0128,43.87 23.3957,26.304 23.3957,20.433 23.3957,26.304 0,5.825 93.5371,125.693 119.8408,146.171 26.3036,20.433 125.6977,61.391 125.6977,61.391 0,0 330.3472,67.215 359.5952,64.302 29.2525,-2.912 204.6495,-2.912 350.8212,-29.216 146.1718,-26.303 406.3411,-43.869 470.6894,-35.086 64.2573,8.783 146.1262,14.608 178.3004,17.52 32.1742,2.958 78.9564,-2.912 78.9564,-2.912 l 49.6948,-2.913 c 0,0 49.6947,-11.695 87.6939,-8.783 37.9992,2.913 67.2608,-5.825 81.8234,5.871 14.6536,11.695 46.7822,29.216 46.7822,29.216 l 55.5653,5.825 c 0,0 116.9556,8.783 172.4754,40.957 55.5653,32.129 134.4762,78.911 134.4762,78.911 0,0 -2.9125,43.87 8.783,55.565 11.6956,11.696 46.7823,43.824 58.4323,46.782 11.7411,2.913 17.5661,5.825 32.1742,-5.87 14.6535,-11.696 26.3036,-17.521 32.1741,-32.129 5.8706,-14.653 14.6081,-38.044 14.6081,-38.044 0,0 26.3036,26.349 40.9572,38.044 14.6081,11.696 32.1287,29.216 43.8242,17.521 11.6956,-11.696 17.5206,-8.783 11.6956,-29.216 -5.825,-20.479 -8.7831,-38.045 -17.5661,-55.566 -8.7375,-17.52 -8.7375,-23.391 -8.7375,-23.391" />
            <path
               id="path32"
               style="fill:#191919;fill-opacity:1;fill-rule:nonzero;stroke:none;stroke-width:0.49426925"
               d="m 14079.088,9519.0445 c 0,0 102.413,-90.3623 120.483,-120.4831 18.076,-30.1208 30.126,-78.312 30.126,-102.4076 0,-24.0957 42.171,-60.2416 42.171,-60.2416 0,0 30.116,-6.0251 18.066,-42.171 -12.046,-36.1459 -12.046,-36.1459 -12.046,-36.1459 0,0 0,-6.0202 -6.02,-36.146 -6.03,-30.1158 -18.075,-42.1661 -18.075,-42.1661 l -12.051,-24.1005 c 0,0 -102.407,-36.141 -144.578,-42.1661 -42.171,-6.0252 -66.267,-54.2164 -66.267,-96.3875 0,-42.1661 39.156,-225.9058 -51.201,-310.2429 -90.368,-84.3372 -162.655,-102.4126 -216.871,-180.7296 -54.221,-78.3169 -90.362,-156.6339 -78.317,-216.8557 12.05,-60.2563 30.126,-138.5782 36.146,-150.6285 6.025,-12.0157 48.196,-12.0157 48.196,-12.0157 0,0 72.287,0 84.337,-24.1006 12.046,-24.1055 0,-72.3116 0,-72.3116 h -48.196 l -6.025,-18.0606 h -24.096 c 0,0 36.146,-72.3116 -6.02,-78.3169 -42.171,-6.0054 -54.216,0 -54.216,0 h -120.488 c 0,0 -48.191,-6.0054 -72.292,54.2164 -24.096,60.2563 -60.242,138.5733 -96.382,186.7448 -36.146,48.2061 -48.192,78.3169 -48.192,78.3169 l -96.387,-84.3223 c 0,0 -12.05,-24.1055 12.045,-24.1055 24.096,0 72.292,0 72.292,-30.1109 0,-30.1504 18.07,-54.2164 -18.075,-66.2667 -36.141,-12.0503 -72.287,-12.0503 -72.287,-12.0503 h -66.272 c 0,0 48.201,-24.1055 36.151,-48.206 -12.05,-24.1055 -54.216,-72.277 -78.312,-54.2164 -24.101,18.0606 -36.146,-6.0054 -36.146,-6.0054 l -24.101,12.0107 h -24.095 c 0,0 6.025,18.1002 -42.171,18.1002 -48.192,0 -60.242,12.0503 -162.649,0 -102.408,-12.0552 -162.65,0 -162.65,0 0,0 -198.8,-48.211 -295.187,6.0054 0,0 -54.217,0 -78.312,-12.0503 -24.096,-12.0553 -259.037,-12.0553 -463.859,0 -204.821,12.0503 -194.202,9.0056 -254.443,33.0715 -60.242,24.1006 -192.772,150.6286 -186.749,277.117 6.024,126.5231 96.387,259.0564 102.411,192.7897 6.026,-66.2666 -24.098,-204.8449 48.193,-253.0114 72.289,-48.2061 78.315,-90.3673 253.014,-102.4225 174.701,-12.0503 73.717,-2.9656 73.717,-2.9656 0,0 277.112,0 337.354,30.1504 60.241,30.1109 84.337,96.3776 78.312,228.9109 -6.021,132.5334 24.095,259.0317 24.095,259.0317 0,0 90.362,265.0568 295.188,403.6153 204.82,138.5536 313.258,144.5787 421.685,138.5536 108.438,-6.0202 132.534,18.0754 132.534,18.0754 l 114.458,-6.0202 c 0,0 42.171,-30.1257 84.342,0 42.166,30.1158 150.599,96.3825 204.82,234.9361 54.217,138.5585 192.77,198.7951 192.77,198.7951 0,0 60.247,90.3623 78.317,96.3924 18.071,6.0202 42.166,0 48.191,-30.1257 6.025,-30.1208 6.025,-48.1913 6.025,-48.1913 l 48.197,24.0956 c 0,0 48.191,54.2214 78.307,84.3372 30.125,30.1208 84.342,84.3421 84.342,72.2918 0,-12.0453 -12.05,-48.1912 -30.121,-84.3372 -18.075,-36.1459 -48.196,-102.4125 -33.136,-117.4729" />
            <path
               id="path28-2"
               style="fill:#191919;fill-opacity:1;fill-rule:nonzero;stroke:none;stroke-width:1"
               d="m -7318.19,9066.4667 c 0,0 295.5,-160.6 340.5,-282.6 45,-122.1 45,-141.4 45,-224.9 0,-83.5 32,-141.3 44.9,-154.2 12.9,-12.8 77.1,-96.3 64.3,-147.7 -12.9,-51.4 -32.2,-70.7 -32.2,-70.7 0,0 -89.899,-128.5 -167,-160.6 -77.1,-32.1 -154.2,-19.2 -231.3,0 -76.999,19.3 -231.2,0 -327.6,-19.2 -96.3,-19.3 -263.4,-83.6 -269.8,-122.0998 -6.4,-38.6 0,-353.3 0,-353.3 0,0 32.1,-327.6 160.6,-469 128.5,-141.3 314.801,-366.1 398.3,-417.5 83.5,-51.4 173.4,-167.1 173.4,-167.1 0,0 122.1,-134.9 173.501,-154.1 51.4,-19.3 115.599,-109.2 115.599,-109.2 0,0 96.4,-38.6 128.501,-38.6 32.099,0 147.799,-32.1 154.199,-96.3 6.4,-64.3 0,-135 -57.799,-154.2 -57.801,-19.3 -173.501,-38.6 -192.801,-25.7 -19.2,12.8 -32.1,25.7 -32.1,25.7 l -32.1,19.2 -51.4,-6.4 c 0,0 -45,-19.2 -89.9,12.9 -45,32.1 -83.6,51.4 -83.6,51.4 l -44.9,19.2 c 0,0 -32.1,51.4 -96.399,90 -64.201,38.5 -134.901,77.1 -134.901,77.1 0,0 -449.7,327.6 -629.5,423.9 -179.9,96.4 -334,276.3 -520.4,295.5 -186.3,19.3 -237.7,19.3 -289.1,51.4 -51.3,32.2 -115.6,102.8 -115.6,102.8 v 25.7 c 0,0 -179.9,-102.8 -301.9,-256.9 -122,-154.2 -224.9,-359.8 -257,-443.3 -32.1,-83.5 -102.8,-224.8 -102.8,-224.8 0,0 -12.8,-51.4 -12.8,-77.1 0,-25.7 -6.5,-70.7 25.7,-115.7 32.1,-44.9 83.5,-32.1 83.5,-32.1 0,0 83.5,-19.2 109.2,-70.6 25.7,-51.4 12.9,-141.4 -12.8,-154.2001 -25.7,-12.8999 -70.7,0 -70.7,0 l -45,-19.2999 -51.4,12.9 c 0,0 -96.3,-32.2 -192.7,-12.9 -96.3,19.2999 -134.9,64.2 -154.1,122.1 -19.3,57.8 -38.6,186.3 -38.6,186.3 v 128.4 c 0,0 -25.7,70.7 0,128.5 25.7,57.8 90,205.6 102.8,340.5 12.8,134.9 45,366.2 45,366.2 l 6.4,147.7 c 0,0 -263.4,-77.1 -456.1,-96.3 -192.8,-19.3 -501.1,6.4 -501.1,6.4 l -468.98,-38.6 -44.93,-38.5 -430.43,-507.5 c 0,0 -51.41,-109.2 25.74,-167 77.07,-57.8 231.21,-212 269.82,-224.9 38.53,-12.8 51.32,-32.1 115.6,-12.8 64.2,19.3 141.34,-25.7 141.34,-25.7 l 89.94,-77.1 c 0,0 19.27,-32.1 -6.47,-83.5 -25.67,-51.4001 -102.73,-70.7 -102.73,-70.7 h -334.1 l -77.06,12.9 -25.75,32.1 -102.73,51.4 c 0,0 -276.21,231.3 -385.41,359.7 -109.21,128.5 -199.15,237.7 -186.36,295.5 12.87,57.8 83.55,186.3 83.55,186.3 0,0 25.66,77.1 44.93,128.5 19.26,51.4 32.14,96.4 32.14,96.4 0,0 -815.85,-173.5 -982.87,-122.1 -167.02,51.4 -263.38,-173.4 -263.38,-173.4 0,0 -218.41,-514 -231.26,-558.9 -12.86,-45 -64.24,-160.6 -109.22,-167 -44.96,-6.5 -122.05,0 -147.74,25.6 -25.71,25.7 -32.12,57.9 -32.12,57.9 l 12.84,51.4 c 0,0 -25.69,57.8 -25.69,77 0,19.3 6.42,64.3 19.26,77.1 12.86,12.9 44.97,12.9 51.4,64.3 6.42,51.4 57.82,282.6 83.51,379 25.7,96.3 179.87,456.1 179.87,456.1 0,0 -102.78,-109.2 -154.17,-134.9 -51.39,-25.7 -38.54,0 -38.54,0 0,0 -51.39,-25.7 -141.33,-38.6 -89.94,-12.8 -70.67,12.9 -70.67,12.9 0,0 44.97,-19.3 -89.93,-12.9 -134.91,6.5 -186.29,19.3 -186.29,19.3 l 12.84,12.9 -70.66,6.4 c 0,0 -77.09,38.5 -134.91,64.2 -57.81,25.7 -12.85,25.7 -12.85,25.7 0,0 -128.48,96.4 -160.6,115.7 -32.11,19.2 -83.51,89.9 -83.51,89.9 l 32.13,-12.9 -19.28,32.2 c 0,0 -141.33,134.9 -154.18,179.8 -12.84,45 -32.12,90 -19.26,102.8 12.84,12.9 147.74,19.3 218.41,-25.7 70.66,-44.9 211.99,-205.5 391.87,-250.5 179.87,-45 411.12,-6.4 635.96,205.6 224.85,211.9 558.89,603.7998 591.02,629.4998 32.11,25.7 51.36,64.2 51.36,64.2 0,0 -44.94,-32.1 -57.79,-38.5 -12.85,-6.4 32.11,38.5 83.53,96.4 51.41,57.8 51.41,44.9 51.41,57.8 0,12.8 205.54,276.2 263.34,321.2 57.8,44.9 276.21,134.9 276.21,134.9 0,0 725.91,147.7 790.18,141.3 64.28,-6.4 449.7,-6.4 770.9,-64.2 321.2,-57.8 892.9,-96.4 1034.3,-77.1 141.2,19.3 321.1,32.1 391.8,38.5 70.7,6.5 173.5,-6.4 173.5,-6.4 l 109.2,-6.4 c 0,0 109.2,-25.7 192.7,-19.3 83.5,6.4 147.8,-12.8 179.8,12.9 32.2,25.7 102.8,64.2 102.8,64.2 l 122.1,12.8 c 0,0 257,19.3 379,90 122.1,70.6 295.5,173.4 295.5,173.4 0,0 -6.4,96.4 19.3,122.1 25.7,25.7 102.801,96.3 128.4,102.8 25.801,6.4 38.6,12.8 70.7,-12.9 32.2,-25.7 57.801,-38.5 70.7,-70.6 12.9,-32.2 32.101,-83.6 32.101,-83.6 0,0 57.799,57.9 90,83.6 32.099,25.7 70.599,64.2 96.299,38.5 25.7,-25.7 38.5,-19.3 25.7,-64.2 -12.8,-45 -19.3,-83.6 -38.6,-122.1 -19.2,-38.5 -19.2,-51.4 -19.2,-51.4" />
            <path
               id="path28-1"
               style="fill:#191919;fill-opacity:1;fill-rule:nonzero;stroke:none;stroke-width:1"
               d="m 25539.468,4235.466 c 0,0 295.5,-160.6 340.5,-282.6 45,-122.1 45,-141.4 45,-224.9 0,-83.5 32,-141.3 44.9,-154.2 12.9,-12.8 77.1,-96.3 64.3,-147.7 -12.9,-51.4 -32.2,-70.7 -32.2,-70.7 0,0 -89.899,-128.5 -167,-160.6 -77.1,-32.1 -154.2,-19.2 -231.3,0 -76.999,19.3 -231.2,0 -327.6,-19.2 -96.3,-19.3 -263.4,-83.6 -269.8,-122.0998 -6.4,-38.6 0,-353.3 0,-353.3 0,0 32.1,-327.6 160.6,-469 128.5,-141.3 314.801,-366.1 398.3,-417.5 83.5,-51.4 173.4,-167.1 173.4,-167.1 0,0 122.1,-134.9 173.501,-154.1 51.4,-19.3 115.599,-109.2 115.599,-109.2 0,0 96.4,-38.6 128.501,-38.6 32.099,0 147.799,-32.1 154.199,-96.3 6.4,-64.3 0,-135 -57.799,-154.2 -57.801,-19.3 -173.501,-38.6 -192.801,-25.7 -19.2,12.8 -32.1,25.7 -32.1,25.7 l -32.1,19.2 -51.4,-6.4 c 0,0 -45,-19.2 -89.9,12.9 -45,32.1 -83.6,51.4 -83.6,51.4 l -44.9,19.2 c 0,0 -32.1,51.4 -96.399,90 -64.201,38.5 -134.901,77.1 -134.901,77.1 0,0 -449.7,327.6 -629.5,423.9 -179.9,96.4 -334,276.3 -520.4,295.5 -186.3,19.3 -237.7,19.3 -289.1,51.4 -51.3,32.2 -115.6,102.8 -115.6,102.8 v 25.7 c 0,0 -179.9,-102.8 -301.9,-256.9 -122,-154.2 -224.9,-359.8 -257,-443.3 -32.1,-83.5 -102.8,-224.8 -102.8,-224.8 0,0 -12.8,-51.4 -12.8,-77.1 0,-25.7 -6.5,-70.7 25.7,-115.7 32.1,-44.9 83.5,-32.1 83.5,-32.1 0,0 83.5,-19.2 109.2,-70.6 25.7,-51.40003 12.9,-141.40003 -12.8,-154.20013 -25.7,-12.8999 -70.7,0 -70.7,0 l -45,-19.2999 -51.4,12.9 c 0,0 -96.3,-32.2 -192.7,-12.9 -96.3,19.2999 -134.9,64.2 -154.1,122.1 -19.3,57.80003 -38.6,186.30003 -38.6,186.30003 v 128.4 c 0,0 -25.7,70.7 0,128.5 25.7,57.8 90,205.6 102.8,340.5 12.8,134.9 45,366.2 45,366.2 l 6.4,147.7 c 0,0 -263.4,-77.1 -456.1,-96.3 -192.8,-19.3 -501.1,6.4 -501.1,6.4 l -468.98,-38.6 -44.93,-38.5 -430.43,-507.5 c 0,0 -51.41,-109.2 25.74,-167 77.07,-57.8 231.21,-212 269.82,-224.9 38.53,-12.8 51.32,-32.1 115.6,-12.8 64.2,19.3 141.34,-25.7 141.34,-25.7 l 89.94,-77.1 c 0,0 19.27,-32.1 -6.47,-83.5 -25.67,-51.40013 -102.73,-70.70003 -102.73,-70.70003 h -334.1 l -77.06,12.9 -25.75,32.1 -102.73,51.40003 c 0,0 -276.21,231.3 -385.41,359.7 -109.21,128.5 -199.15,237.7 -186.36,295.5 12.87,57.8 83.55,186.3 83.55,186.3 0,0 25.66,77.1 44.93,128.5 19.26,51.4 32.14,96.4 32.14,96.4 0,0 -815.85,-173.5 -982.87,-122.1 -167.02,51.4 -263.38,-173.4 -263.38,-173.4 0,0 -218.41,-514 -231.26,-558.9 -12.86,-45 -64.24,-160.6 -109.22,-167 -44.96,-6.5 -122.05,0 -147.74,25.6 -25.71,25.7 -32.12,57.9 -32.12,57.9 l 12.84,51.4 c 0,0 -25.69,57.8 -25.69,77 0,19.3 6.42,64.3 19.26,77.1 12.86,12.9 44.97,12.9 51.4,64.3 6.42,51.4 57.82,282.6 83.51,379 25.7,96.3 179.87,456.1 179.87,456.1 0,0 -102.78,-109.2 -154.17,-134.9 -51.39,-25.7 -38.54,0 -38.54,0 0,0 -51.39,-25.7 -141.33,-38.6 -89.94,-12.8 -70.67,12.9 -70.67,12.9 0,0 44.97,-19.3 -89.93,-12.9 -134.91,6.5 -186.29,19.3 -186.29,19.3 l 12.84,12.9 -70.66,6.4 c 0,0 -77.09,38.5 -134.91,64.2 -57.81,25.7 -12.85,25.7 -12.85,25.7 0,0 -128.48,96.4 -160.6,115.7 -32.11,19.2 -83.51,89.9 -83.51,89.9 l 32.13,-12.9 -19.28,32.2 c 0,0 -141.33,134.9 -154.18,179.8 -12.84,45 -32.12,90 -19.26,102.8 12.84,12.9 147.74,19.3 218.41,-25.7 70.66,-44.9 211.99,-205.5 391.87,-250.5 179.87,-45 411.12,-6.4 635.96,205.6 224.85,211.9 558.89,603.7998 591.02,629.4998 32.11,25.7 51.36,64.2 51.36,64.2 0,0 -44.94,-32.1 -57.79,-38.5 -12.85,-6.4 32.11,38.5 83.53,96.4 51.41,57.8 51.41,44.9 51.41,57.8 0,12.8 205.54,276.2 263.34,321.2 57.8,44.9 276.21,134.9 276.21,134.9 0,0 725.91,147.7 790.18,141.3 64.28,-6.4 449.7,-6.4 770.9,-64.2 321.2,-57.8 892.9,-96.4 1034.3,-77.1 141.2,19.3 321.1,32.1 391.8,38.5 70.7,6.5 173.5,-6.4 173.5,-6.4 l 109.2,-6.4 c 0,0 109.2,-25.7 192.7,-19.3 83.5,6.4 147.8,-12.8 179.8,12.9 32.2,25.7 102.8,64.2 102.8,64.2 l 122.1,12.8 c 0,0 257,19.3 379,90 122.1,70.6 295.5,173.4 295.5,173.4 0,0 -6.4,96.4 19.3,122.1 25.7,25.7 102.801,96.3 128.4,102.8 25.801,6.4 38.6,12.8 70.7,-12.9 32.2,-25.7 57.801,-38.5 70.7,-70.6 12.9,-32.2 32.101,-83.6 32.101,-83.6 0,0 57.799,57.9 90,83.6 32.099,25.7 70.599,64.2 96.299,38.5 25.7,-25.7 38.5,-19.3 25.7,-64.2 -12.8,-45 -19.3,-83.6 -38.6,-122.1 -19.2,-38.5 -19.2,-51.4 -19.2,-51.4" />
          </g>
        </g>
      </g>
    </g>
  </g>
</svg>
