<?xml version="1.0" encoding="UTF-8" standalone="no"?>
<!-- Created with Inkscape (http://www.inkscape.org/) -->

<svg
   xmlns:dc="http://purl.org/dc/elements/1.1/"
   xmlns:cc="http://creativecommons.org/ns#"
   xmlns:rdf="http://www.w3.org/1999/02/22-rdf-syntax-ns#"
   xmlns:svg="http://www.w3.org/2000/svg"
   xmlns="http://www.w3.org/2000/svg"
   xmlns:sodipodi="http://sodipodi.sourceforge.net/DTD/sodipodi-0.dtd"
   xmlns:inkscape="http://www.inkscape.org/namespaces/inkscape"
   width="43.394497mm"
   height="14.383928mm"
   viewBox="0 0 43.394497 14.383928"
   version="1.1"
   id="svg10921"
   inkscape:version="0.92.3 (2405546, 2018-03-11)"
   sodipodi:docname="0.svg">
  <defs
     id="defs10915" />
  <sodipodi:namedview
     id="base"
     pagecolor="#ffffff"
     bordercolor="#666666"
     borderopacity="1.0"
     inkscape:pageopacity="0.0"
     inkscape:pageshadow="2"
     inkscape:zoom="1.4"
     inkscape:cx="164.06844"
     inkscape:cy="-22.862902"
     inkscape:document-units="mm"
     inkscape:current-layer="layer1"
     showgrid="false"
     inkscape:window-width="1920"
     inkscape:window-height="1001"
     inkscape:window-x="-9"
     inkscape:window-y="-9"
     inkscape:window-maximized="1"
     fit-margin-top="0"
     fit-margin-left="0"
     fit-margin-right="0"
     fit-margin-bottom="0" />
  <metadata
     id="metadata10918">
    <rdf:RDF>
      <cc:Work
         rdf:about="">
        <dc:format>image/svg+xml</dc:format>
        <dc:type
           rdf:resource="http://purl.org/dc/dcmitype/StillImage" />
        <dc:title></dc:title>
      </cc:Work>
    </rdf:RDF>
  </metadata>
  <g
     inkscape:label="レイヤー 1"
     inkscape:groupmode="layer"
     id="layer1"
     transform="translate(-34.140526,-111.01646)">
    <path
       inkscape:connector-curvature="0"
       id="path3118"
       style="fill:#0e0f0e;fill-opacity:1;fill-rule:nonzero;stroke:none;stroke-width:0.03527778"
       d="m 72.837082,124.29515 c 0.0459,-0.96484 1.70039,-0.68897 2.02142,0.0459 -0.64276,0.64347 -2.06693,0.91899 -2.02142,-0.0459 z m 0.63183,-3.538 c 0,0 0.41345,-0.62019 0.65475,-0.89571 0,0 0.62019,0.37889 0.930281,1.34373 -0.827271,0 -1.447451,-0.13758 -1.585031,-0.44802 z m -0.20708,-0.34431 c -0.65441,-0.27588 -0.86149,-0.99942 -0.86149,-1.30952 0,0 0.51717,0.10337 1.37831,0.37853 0,0 -0.0342,0.34502 -0.51682,0.93099 z m -0.65441,0.75776 c -0.27587,0.31045 -0.82726,0.2413 -1.20614,-0.13758 -0.37924,-0.37924 -0.13794,-0.96485 0.48189,-1.48167 0,0 0.44838,0.75812 0.86184,1.06821 0,0 0.13758,0.2413 -0.13759,0.55104 z m 1.32609,-2.165 c 0,0 -1.08338,-0.27093 -1.62524,-0.28786 0,0 0.0512,-0.88018 -0.16898,-2.26836 1.45591,0.49071 1.67604,1.50636 1.79422,2.55622 z m -3.01448,-2.57316 c -0.87912,-1.27494 -1.8609,-2.37772 -3.08434,-1.56774 0.89571,1.13735 1.53317,2.30893 0.56868,3.73874 -0.96485,1.43016 -2.61937,0.60325 -2.84304,0.0691 -0.22436,-0.53411 -0.22436,-1.49895 0.49989,-1.68875 0.72319,-0.18944 1.30881,0.15487 1.53282,0.70662 0.3623,-1.06857 0.27587,-2.01613 -0.98178,-3.11891 0.89605,-0.86149 2.39501,-1.17123 3.37714,-0.70626 0.98178,0.46531 1.58503,1.3783 1.80905,2.1537 -0.29316,0.18945 -0.87842,0.41346 -0.87842,0.41346 z m -1.09855,1.81116 c -0.2032,-0.16933 0.27058,-0.96449 0.79551,-1.28658 0,0.44027 -0.59302,1.45592 -0.79551,1.28658 z m 5.922781,3.47875 c 0,0 0.99907,-0.51718 1.79176,-1.10279 0,0 -1.17157,0.37889 -1.89512,0.72355 0,0 -0.30903,-0.72672 -1.178631,-1.47214 0.0353,-1.17122 0.0177,-3.05259 -2.34315,-3.70946 0,0 0.0363,-1.15323 -1.24142,-2.0761 -1.27777,-0.92322 -2.68006,-1.13594 -4.82777,0.23037 0,0 -0.97578,-0.46108 -1.75683,-0.58561 0,0 0.46143,-0.53235 0.53269,-1.52612 0.0705,-0.99378 -1.47919,-1.524 -2.10255,-0.95285 -0.62371,0.57185 -0.32491,1.29963 0.15628,1.55927 -0.10442,0.41558 -0.72778,1.03929 -1.97556,1.19522 0,0 -8.52205,0 -26.762436,0 0,0 25.288536,0.254 26.925066,0.28821 1.63689,0.0342 2.06904,-0.83008 2.8762,-1.79599 -0.28434,0.22719 -0.57997,0.0794 -0.9211,-0.0572 -0.34079,-0.13617 -0.35208,-0.64805 0.11394,-1.01176 0.46602,-0.36336 1.18181,0.25012 1.20474,0.7052 0.0483,0.96873 -0.24377,1.31762 -1.10525,1.93781 0.20708,-0.0688 1.99884,0.2413 2.85997,0.72354 0,0 -0.17216,0.31045 -0.41311,0.68933 0,0 -7.7537,0.0349 -13.09511,0.20673 0,0 11.44094,0.0346 13.2327,0.0346 0,0 0.32949,-0.45579 0.49212,-0.7306 0.20638,0.0342 1.02412,0.69603 1.12783,1.59208 -1.58503,-0.96484 -2.8261,0.62019 -2.41229,1.82633 0.41345,1.20615 1.96391,1.68875 3.308,0.65476 1.34373,-1.03399 0.86148,-3.13584 0.27587,-3.85939 0.72355,-0.0691 1.27494,0.24095 1.92934,1.3783 -1.34373,0.48225 -1.27459,1.89513 -0.82691,2.10185 0.44838,0.20673 1.17157,-0.51682 1.17157,-1.75718 0,0 0.30974,-0.13794 0.58561,-0.34467 0,0 0.17287,0.0688 0.37959,0.13794 0,0 0.0684,0.93028 0.10301,2.13642 0,0 -1.13735,0 -1.10243,1.44745 0.0342,1.44745 1.27494,1.82598 2.54988,1.41287 0.31009,0.48225 1.06857,0.55104 1.757891,0.27552 0,0 0.0684,0.34431 0.37853,0.27552 -0.10301,0.93063 0,0.99978 -0.44838,1.79211 -0.447671,-0.51682 -1.032931,-0.7239 -1.309151,-0.68932 -0.27552,0.0346 -1.27494,0 -1.27494,1.06856 0,1.06786 1.55116,1.27494 2.550231,0.44803 0,0 0.0688,0.13758 0.27552,0.37888 0,0 0.0688,-0.2413 -0.0349,-0.82691 0.37959,-0.51717 0.68932,-1.13736 0.44873,-2.72239" />
  </g>
</svg>
