<?xml version="1.0" encoding="UTF-8" standalone="no"?>
<svg
   xmlns:dc="http://purl.org/dc/elements/1.1/"
   xmlns:cc="http://creativecommons.org/ns#"
   xmlns:rdf="http://www.w3.org/1999/02/22-rdf-syntax-ns#"
   xmlns:svg="http://www.w3.org/2000/svg"
   xmlns="http://www.w3.org/2000/svg"
   id="svg8"
   version="1.1"
   viewBox="0 0 83.682182 75.479462"
   height="75.479462mm"
   width="83.682182mm">
  <defs
     id="defs2">
    <clipPath
       clipPathUnits="userSpaceOnUse"
       id="clipPath20">
      <path
         d="M 0,0 H 5782.82 V 5115 H 0 Z"
         id="path18" />
    </clipPath>
    <clipPath
       clipPathUnits="userSpaceOnUse"
       id="clipPath1794">
      <path
         d="m 3236.28,782.27 211.34,-69.911 -79.64,-58.519 -147.97,84.531 16.27,43.899"
         id="path1792" />
    </clipPath>
    <clipPath
       clipPathUnits="userSpaceOnUse"
       id="clipPath1804">
      <path
         d="m 3112.06,292.852 222.56,4.089 -55.75,-81.632 -167.61,30.742 0.8,46.801"
         id="path1802" />
    </clipPath>
    <clipPath
       clipPathUnits="userSpaceOnUse"
       id="clipPath1814">
      <path
         d="m 3187.51,905.832 139.81,17.879 -14.62,-87.801 -100.8,-6.5 -24.39,76.422"
         id="path1812" />
    </clipPath>
    <clipPath
       clipPathUnits="userSpaceOnUse"
       id="clipPath1824">
      <path
         d="M 0,0 V 5115 H 5783 V 0 Z"
         id="path1822" />
    </clipPath>
  </defs>
  <metadata
     id="metadata5">
    <rdf:RDF>
      <cc:Work
         rdf:about="">
        <dc:format>image/svg+xml</dc:format>
        <dc:type
           rdf:resource="http://purl.org/dc/dcmitype/StillImage" />
        <dc:title></dc:title>
      </cc:Work>
    </rdf:RDF>
  </metadata>
  <g
     transform="translate(-45.849389,-93.706697)"
     id="layer1">
    <g
       id="layer1-6"
       transform="translate(-18.768965,16.632145)">
      <path
         style="fill:#000000;fill-opacity:1;stroke:#040000;stroke-width:0.26458332px;stroke-linecap:butt;stroke-linejoin:miter;stroke-opacity:1"
         d="m 65.011905,77.206844 h 83.154755 l -0.18899,15.875001 -83.154754,0.188988 z"
         id="path11490" />
      <path
         style="fill:#000000;fill-opacity:1;stroke:#000000;stroke-width:0.26458332px;stroke-linecap:butt;stroke-linejoin:miter;stroke-opacity:1"
         d="M 64.940335,99.223805 H 148.09509 L 147.9061,115.09881 106.42546,152.37654 64.751346,115.28779 Z"
         id="path11490-7" />
    </g>
  </g>
</svg>
